<svg width="22" height="18" viewBox="0 0 22 18" fill="none" xmlns="http://www.w3.org/2000/svg">
<path d="M4.88889 4.5H17.1111V13.5H4.88889V4.5ZM20.1667 9C20.1667 10.2427 20.9875 11.25 22 11.25V15.75C22 16.9927 21.1792 18 20.1667 18H1.83333C0.820799 18 0 16.9927 0 15.75V11.25C1.01253 11.25 1.83333 10.2427 1.83333 9C1.83333 7.75734 1.01253 6.75 0 6.75V2.25C0 1.00734 0.820799 0 1.83333 0H20.1667C21.1792 0 22 1.00734 22 2.25V6.75C20.9875 6.75 20.1667 7.75734 20.1667 9ZM18.3333 4.125C18.3333 3.50367 17.9229 3 17.4167 3H4.58333C4.07707 3 3.66667 3.50367 3.66667 4.125V13.875C3.66667 14.4963 4.07707 15 4.58333 15H17.4167C17.9229 15 18.3333 14.4963 18.3333 13.875V4.125Z" fill="white"/>
</svg>
